<svg xmlns="http://www.w3.org/2000/svg" viewBox="0 0 664 664"><defs><style>.a{fill:#2c2c2c;}</style></defs><path class="a" d="M664,664H0V0H664V664ZM332,55a279.047,279.047,0,0,0-55.825,5.628,275.484,275.484,0,0,0-99.048,41.68A277.809,277.809,0,0,0,76.768,224.179a275.606,275.606,0,0,0-16.14,52,279.7,279.7,0,0,0,0,111.651,275.484,275.484,0,0,0,41.68,99.048A277.809,277.809,0,0,0,224.179,587.232a275.594,275.594,0,0,0,52,16.14,279.7,279.7,0,0,0,111.651,0,275.485,275.485,0,0,0,99.048-41.68A277.809,277.809,0,0,0,587.232,439.821a275.6,275.6,0,0,0,16.14-52,279.7,279.7,0,0,0,0-111.651,275.485,275.485,0,0,0-41.68-99.048A277.809,277.809,0,0,0,439.821,76.768a275.61,275.61,0,0,0-52-16.14A279.047,279.047,0,0,0,332,55Z"/></svg>