<?xml version="1.0" encoding="utf-8"?>
<!-- Generator: Adobe Illustrator 23.1.1, SVG Export Plug-In . SVG Version: 6.00 Build 0)  -->
<svg version="1.1" id="Layer_1" xmlns="http://www.w3.org/2000/svg" xmlns:xlink="http://www.w3.org/1999/xlink" x="0px" y="0px"
	 viewBox="0 0 2216 86.6" style="enable-background:new 0 0 2216 86.6;" xml:space="preserve">
<style type="text/css">
	.st0{fill-rule:evenodd;clip-rule:evenodd;fill:#FFD316;}
</style>
<g transform="translate(1153 -458.615)">
	<g transform="translate(-457 -26.573)">
		<g transform="translate(-696 485.189)">
			<path class="st0" d="M554,52.9c-53.8,0-71-53-140.4-52.9C344.4,0,327,52.9,277,52.9v33.7h277C554,86.6,554,65.6,554,52.9z"/>
			<path class="st0" d="M277,52.9c-53.8,0-71-53-140.4-52.9C67.4,0,50,52.9,0,52.9v33.7h277C277,86.6,277,65.6,277,52.9z"/>
		</g>
		<g transform="translate(-142 485.189)">
			<path class="st0" d="M554,52.9c-53.8,0-71-53-140.4-52.9C344.4,0,327,52.9,277,52.9v33.7h277C554,86.6,554,65.6,554,52.9z"/>
			<path class="st0" d="M277,52.9c-53.8,0-71-53-140.4-52.9C67.4,0,50,52.9,0,52.9v33.7h277C277,86.6,277,65.6,277,52.9z"/>
		</g>
	</g>
	<g transform="translate(651 -26.573)">
		<g transform="translate(-696 485.189)">
			<path class="st0" d="M554,52.9c-53.8,0-71-53-140.4-52.9C344.4,0,327,52.9,277,52.9v33.7h277C554,86.6,554,65.6,554,52.9z"/>
			<path class="st0" d="M277,52.9c-53.8,0-71-53-140.4-52.9C67.4,0,50,52.9,0,52.9v33.7h277C277,86.6,277,65.6,277,52.9z"/>
		</g>
		<g transform="translate(-142 485.189)">
			<path class="st0" d="M554,52.9c-53.8,0-71-53-140.4-52.9C344.4,0,327,52.9,277,52.9v33.7h277C554,86.6,554,65.6,554,52.9z"/>
			<path class="st0" d="M277,52.9c-53.8,0-71-53-140.4-52.9C67.4,0,50,52.9,0,52.9v33.7h277C277,86.6,277,65.6,277,52.9z"/>
		</g>
	</g>
</g>
</svg>
